<svg width="35" height="25" viewBox="0 0 35 25" fill="none" xmlns="http://www.w3.org/2000/svg">
<path d="M19.5417 10.4167L27.2324 18.1438C28.0897 18.998 28.0897 20.3813 27.2324 21.2345C26.8205 21.6441 26.2633 21.8741 25.6824 21.8741C25.1015 21.8741 24.5442 21.6441 24.1324 21.2345L16.4167 13.5417" stroke="#1D72F2" stroke-width="2.08333" stroke-linecap="round" stroke-linejoin="round"/>
<path d="M12.25 9.375L16.4167 13.5417" stroke="#1D72F2" stroke-width="2.08333" stroke-linecap="round" stroke-linejoin="round"/>
<path d="M19.5417 10.4167L15.375 6.25" stroke="#1D72F2" stroke-width="2.08333" stroke-linecap="round" stroke-linejoin="round"/>
<path d="M9.125 21.875H16.4167" stroke="#1D72F2" stroke-width="2.08333" stroke-linecap="round" stroke-linejoin="round"/>
<path d="M13.076 16.451L9.34063 12.7156C9.14535 12.5203 9.03564 12.2554 9.03564 11.9792C9.03564 11.703 9.14535 11.4381 9.34063 11.2427L11.7292 8.85417L12.25 9.37501L15.375 6.25001L14.8542 5.72917L17.2427 3.34063C17.4381 3.14535 17.703 3.03564 17.9792 3.03564C18.2554 3.03564 18.5203 3.14535 18.7156 3.34063L22.451 7.07605C22.6463 7.27139 22.756 7.53629 22.756 7.81251C22.756 8.08872 22.6463 8.35362 22.451 8.54896L20.0625 10.9375L19.5417 10.4167L16.4167 13.5417L16.9375 14.0625L14.549 16.451C14.3536 16.6463 14.0887 16.756 13.8125 16.756C13.5363 16.756 13.2714 16.6463 13.076 16.451V16.451Z" stroke="#1D72F2" stroke-width="2.08333" stroke-linecap="round" stroke-linejoin="round"/>
</svg>
