<svg width="39" height="36" viewBox="0 0 39 36" fill="none" xmlns="http://www.w3.org/2000/svg">
<g clip-path="url(#clip0_0_95)">
<g filter="url(#filter0_bdi_0_95)">
<mask id="path-1-inside-1_0_95" fill="white">
<path fill-rule="evenodd" clip-rule="evenodd" d="M1.67793 0.0275078C0.918344 -0.124409 0.179425 0.368203 0.0275078 1.12779C-0.124409 1.88738 0.368203 2.62629 1.12779 2.77821L3.09022 3.1707C4.09774 3.3722 4.85558 4.20797 4.95781 5.23035L5.24494 8.10163L7.09538 23.522C7.40556 26.1067 9.59827 28.0521 12.2016 28.0521H29.0194C32.6665 28.0521 35.8456 25.5699 36.7301 22.0317L38.8298 13.6329C39.7298 10.033 37.007 6.54569 33.2963 6.54569H7.90852L7.74907 4.95122C7.52415 2.70199 5.85691 0.863305 3.64036 0.419994L1.67793 0.0275078Z"/>
</mask>
<path fill-rule="evenodd" clip-rule="evenodd" d="M1.67793 0.0275078C0.918344 -0.124409 0.179425 0.368203 0.0275078 1.12779C-0.124409 1.88738 0.368203 2.62629 1.12779 2.77821L3.09022 3.1707C4.09774 3.3722 4.85558 4.20797 4.95781 5.23035L5.24494 8.10163L7.09538 23.522C7.40556 26.1067 9.59827 28.0521 12.2016 28.0521H29.0194C32.6665 28.0521 35.8456 25.5699 36.7301 22.0317L38.8298 13.6329C39.7298 10.033 37.007 6.54569 33.2963 6.54569H7.90852L7.74907 4.95122C7.52415 2.70199 5.85691 0.863305 3.64036 0.419994L1.67793 0.0275078Z" fill="url(#paint0_linear_0_95)" shape-rendering="crispEdges"/>
<path d="M0.0275078 1.12779L0.272653 1.17682L0.0275078 1.12779ZM1.67793 0.0275078L1.6289 0.272653L1.67793 0.0275078ZM1.12779 2.77821L1.17682 2.53307H1.17682L1.12779 2.77821ZM3.09022 3.1707L3.04119 3.41584H3.04119L3.09022 3.1707ZM4.95781 5.23035L4.70905 5.25522V5.25522L4.95781 5.23035ZM5.24494 8.10163L4.99614 8.12651L4.99672 8.13141L5.24494 8.10163ZM7.09538 23.522L7.3436 23.4922L7.09538 23.522ZM36.7301 22.0317L36.9727 22.0924L36.7301 22.0317ZM38.8298 13.6329L38.5873 13.5723L38.8298 13.6329ZM7.90852 6.54569L7.65976 6.57056L7.68227 6.79569H7.90852V6.54569ZM7.74907 4.95122L7.50031 4.9761V4.9761L7.74907 4.95122ZM3.64036 0.419994L3.59133 0.665139L3.64036 0.419994ZM0.272653 1.17682C0.397492 0.552622 1.00471 0.147814 1.6289 0.272653L1.72696 -0.217637C0.831983 -0.396633 -0.0386423 0.183784 -0.217637 1.07876L0.272653 1.17682ZM1.17682 2.53307C0.552622 2.40823 0.147814 1.80101 0.272653 1.17682L-0.217637 1.07876C-0.396633 1.97374 0.183784 2.84436 1.07876 3.02336L1.17682 2.53307ZM3.13925 2.92555L1.17682 2.53307L1.07876 3.02336L3.04119 3.41584L3.13925 2.92555ZM5.20657 5.20547C5.0934 4.07375 4.25452 3.14861 3.13925 2.92555L3.04119 3.41584C3.94096 3.5958 4.61775 4.34218 4.70905 5.25522L5.20657 5.20547ZM5.4937 8.07675L5.20657 5.20547L4.70905 5.25522L4.99618 8.1265L5.4937 8.07675ZM7.3436 23.4922L5.49316 8.07184L4.99672 8.13141L6.84717 23.5518L7.3436 23.4922ZM12.2016 27.8021C9.72482 27.8021 7.6387 25.9513 7.3436 23.4922L6.84717 23.5518C7.17241 26.2622 9.47172 28.3021 12.2016 28.3021V27.8021ZM29.0194 27.8021H12.2016V28.3021H29.0194V27.8021ZM36.4876 21.9711C35.6309 25.398 32.5518 27.8021 29.0194 27.8021V28.3021C32.7812 28.3021 36.0603 25.7418 36.9727 22.0924L36.4876 21.9711ZM38.5873 13.5723L36.4876 21.9711L36.9727 22.0924L39.0724 13.6936L38.5873 13.5723ZM33.2963 6.79569C36.8444 6.79569 39.4478 10.1301 38.5873 13.5723L39.0724 13.6936C40.0118 9.93581 37.1697 6.29569 33.2963 6.29569V6.79569ZM7.90852 6.79569H33.2963V6.29569H7.90852V6.79569ZM7.50031 4.9761L7.65976 6.57056L8.15728 6.52081L7.99783 4.92634L7.50031 4.9761ZM3.59133 0.665139C5.70014 1.0869 7.28632 2.8362 7.50031 4.9761L7.99783 4.92635C7.76197 2.56777 6.01369 0.639709 3.68939 0.174848L3.59133 0.665139ZM1.6289 0.272653L3.59133 0.665139L3.68939 0.174848L1.72696 -0.217637L1.6289 0.272653Z" fill="url(#paint1_linear_0_95)" fill-opacity="0.7" mask="url(#path-1-inside-1_0_95)"/>
</g>
<g filter="url(#filter1_d_0_95)">
<path d="M21.9741 21.0391H14.4937" stroke="#1D72F2" stroke-width="1.5" stroke-linecap="round" stroke-linejoin="round"/>
</g>
<g filter="url(#filter2_d_0_95)">
<circle cx="13.5586" cy="33.1948" r="2.80518" fill="#1D72F2"/>
</g>
<g filter="url(#filter3_d_0_95)">
<circle cx="30.3898" cy="33.1948" r="2.80518" fill="#1D72F2"/>
</g>
</g>
<defs>
<filter id="filter0_bdi_0_95" x="-4" y="-4" width="47.0029" height="36.052" filterUnits="userSpaceOnUse" color-interpolation-filters="sRGB">
<feFlood flood-opacity="0" result="BackgroundImageFix"/>
<feGaussianBlur in="BackgroundImageFix" stdDeviation="1"/>
<feComposite in2="SourceAlpha" operator="in" result="effect1_backgroundBlur_0_95"/>
<feColorMatrix in="SourceAlpha" type="matrix" values="0 0 0 0 0 0 0 0 0 0 0 0 0 0 0 0 0 0 127 0" result="hardAlpha"/>
<feOffset/>
<feGaussianBlur stdDeviation="2"/>
<feComposite in2="hardAlpha" operator="out"/>
<feColorMatrix type="matrix" values="0 0 0 0 0.113725 0 0 0 0 0.447059 0 0 0 0 0.94902 0 0 0 0.1 0"/>
<feBlend mode="normal" in2="effect1_backgroundBlur_0_95" result="effect2_dropShadow_0_95"/>
<feBlend mode="normal" in="SourceGraphic" in2="effect2_dropShadow_0_95" result="shape"/>
<feColorMatrix in="SourceAlpha" type="matrix" values="0 0 0 0 0 0 0 0 0 0 0 0 0 0 0 0 0 0 127 0" result="hardAlpha"/>
<feOffset/>
<feGaussianBlur stdDeviation="1.5"/>
<feComposite in2="hardAlpha" operator="arithmetic" k2="-1" k3="1"/>
<feColorMatrix type="matrix" values="0 0 0 0 0.113725 0 0 0 0 0.447059 0 0 0 0 0.94902 0 0 0 0.38 0"/>
<feBlend mode="normal" in2="shape" result="effect3_innerShadow_0_95"/>
</filter>
<filter id="filter1_d_0_95" x="11.7437" y="18.2891" width="12.9805" height="5.5" filterUnits="userSpaceOnUse" color-interpolation-filters="sRGB">
<feFlood flood-opacity="0" result="BackgroundImageFix"/>
<feColorMatrix in="SourceAlpha" type="matrix" values="0 0 0 0 0 0 0 0 0 0 0 0 0 0 0 0 0 0 127 0" result="hardAlpha"/>
<feOffset/>
<feGaussianBlur stdDeviation="1"/>
<feComposite in2="hardAlpha" operator="out"/>
<feColorMatrix type="matrix" values="0 0 0 0 0.113725 0 0 0 0 0.447059 0 0 0 0 0.94902 0 0 0 0.35 0"/>
<feBlend mode="normal" in2="BackgroundImageFix" result="effect1_dropShadow_0_95"/>
<feBlend mode="normal" in="SourceGraphic" in2="effect1_dropShadow_0_95" result="shape"/>
</filter>
<filter id="filter2_d_0_95" x="8.75342" y="28.3896" width="9.61035" height="9.61035" filterUnits="userSpaceOnUse" color-interpolation-filters="sRGB">
<feFlood flood-opacity="0" result="BackgroundImageFix"/>
<feColorMatrix in="SourceAlpha" type="matrix" values="0 0 0 0 0 0 0 0 0 0 0 0 0 0 0 0 0 0 127 0" result="hardAlpha"/>
<feOffset/>
<feGaussianBlur stdDeviation="1"/>
<feComposite in2="hardAlpha" operator="out"/>
<feColorMatrix type="matrix" values="0 0 0 0 0.113725 0 0 0 0 0.447059 0 0 0 0 0.94902 0 0 0 0.35 0"/>
<feBlend mode="normal" in2="BackgroundImageFix" result="effect1_dropShadow_0_95"/>
<feBlend mode="normal" in="SourceGraphic" in2="effect1_dropShadow_0_95" result="shape"/>
</filter>
<filter id="filter3_d_0_95" x="25.5846" y="28.3896" width="9.61035" height="9.61035" filterUnits="userSpaceOnUse" color-interpolation-filters="sRGB">
<feFlood flood-opacity="0" result="BackgroundImageFix"/>
<feColorMatrix in="SourceAlpha" type="matrix" values="0 0 0 0 0 0 0 0 0 0 0 0 0 0 0 0 0 0 127 0" result="hardAlpha"/>
<feOffset/>
<feGaussianBlur stdDeviation="1"/>
<feComposite in2="hardAlpha" operator="out"/>
<feColorMatrix type="matrix" values="0 0 0 0 0.113725 0 0 0 0 0.447059 0 0 0 0 0.94902 0 0 0 0.35 0"/>
<feBlend mode="normal" in2="BackgroundImageFix" result="effect1_dropShadow_0_95"/>
<feBlend mode="normal" in="SourceGraphic" in2="effect1_dropShadow_0_95" result="shape"/>
</filter>
<linearGradient id="paint0_linear_0_95" x1="-12.676" y1="-11.2208" x2="38.3741" y2="52.0846" gradientUnits="userSpaceOnUse">
<stop stop-color="#1D72F2" stop-opacity="0.26"/>
<stop offset="0.505208" stop-color="#1D72F2" stop-opacity="0.12"/>
<stop offset="1" stop-color="#1D72F2" stop-opacity="0.04"/>
</linearGradient>
<linearGradient id="paint1_linear_0_95" x1="0.975073" y1="4.20781" x2="25.4355" y2="33.3586" gradientUnits="userSpaceOnUse">
<stop stop-color="white" stop-opacity="0.15"/>
<stop offset="1" stop-color="white" stop-opacity="0.44"/>
</linearGradient>
<clipPath id="clip0_0_95">
<rect width="39" height="36" fill="white"/>
</clipPath>
</defs>
</svg>
