<svg width="34" height="23" viewBox="0 0 34 23" fill="none" xmlns="http://www.w3.org/2000/svg">
<g clip-path="url(#clip0_0_429)">
<path d="M14.4167 4.20833C14.4167 3.6558 14.6362 3.12589 15.0269 2.73519C15.4176 2.34449 15.9475 2.125 16.5001 2.125C17.0526 2.125 17.5825 2.34449 17.9732 2.73519C18.3639 3.12589 18.5834 3.6558 18.5834 4.20833C19.7797 4.77399 20.7995 5.65451 21.5335 6.75552C22.2675 7.85653 22.688 9.13653 22.7501 10.4583V13.5833C22.8285 14.2309 23.0578 14.8511 23.4197 15.3939C23.7815 15.9367 24.2658 16.3869 24.8334 16.7083H8.16675C8.73439 16.3869 9.21863 15.9367 9.58048 15.3939C9.94234 14.8511 10.1717 14.2309 10.2501 13.5833V10.4583C10.3121 9.13653 10.7327 7.85653 11.4667 6.75552C12.2007 5.65451 13.2205 4.77399 14.4167 4.20833" stroke="#1D72F2" stroke-width="2.08333" stroke-linecap="round" stroke-linejoin="round"/>
<path d="M13.375 16.7083V17.7499C13.375 18.5787 13.7042 19.3736 14.2903 19.9596C14.8763 20.5457 15.6712 20.8749 16.5 20.8749C17.3288 20.8749 18.1237 20.5457 18.7097 19.9596C19.2958 19.3736 19.625 18.5787 19.625 17.7499V16.7083" stroke="#1D72F2" stroke-width="2.08333" stroke-linecap="round" stroke-linejoin="round"/>
</g>
<defs>
<clipPath id="clip0_0_429">
<rect width="34" height="23" fill="white"/>
</clipPath>
</defs>
</svg>
