<svg width="14" height="12" viewBox="0 0 14 12" fill="none" xmlns="http://www.w3.org/2000/svg">
<g clip-path="url(#clip0_0_2403)">
<path d="M6.19137 4.84529C6.19137 5.20636 6.48407 5.49906 6.84514 5.49906C7.2062 5.49906 7.4989 5.20636 7.4989 4.84529C7.4989 4.48423 7.2062 4.19153 6.84514 4.19153C6.48407 4.19153 6.19137 4.48423 6.19137 4.84529Z" stroke="#1D72F2" stroke-width="1.30753" stroke-linecap="round" stroke-linejoin="round"/>
<path d="M6.84519 1.57654C6.19868 1.57654 5.56669 1.76825 5.02914 2.12743C4.49158 2.48662 4.07261 2.99714 3.8252 3.59443C3.57779 4.19173 3.51306 4.84898 3.63918 5.48307C3.76531 6.11716 4.07664 6.69961 4.53379 7.15676C4.99094 7.61391 5.57339 7.92524 6.20748 8.05137C6.84157 8.1775 7.49882 8.11276 8.09612 7.86535C8.69342 7.61794 9.20394 7.19897 9.56312 6.66142C9.9223 6.12386 10.114 5.49187 10.114 4.84536" stroke="#1D72F2" stroke-width="1.30753" stroke-linecap="round" stroke-linejoin="round"/>
<path d="M2.29689 1.11218C1.69854 1.84126 1.28422 2.7035 1.08885 3.62622C0.893494 4.54894 0.922818 5.50511 1.17436 6.41413C1.42589 7.32315 1.89227 8.15837 2.53418 8.84941C3.17609 9.54045 3.97472 10.067 4.86276 10.3848C5.75079 10.7026 6.70221 10.8022 7.63681 10.6753C8.57141 10.5484 9.46181 10.1987 10.233 9.65563C11.0041 9.11256 11.6334 8.39207 12.0678 7.55489C12.5022 6.7177 12.729 5.78835 12.729 4.84517" stroke="#1D72F2" stroke-width="1.30753" stroke-linecap="round" stroke-linejoin="round"/>
</g>
<defs>
<clipPath id="clip0_0_2403">
<rect width="12" height="14" fill="white" transform="translate(14) rotate(90)"/>
</clipPath>
</defs>
</svg>
